<svg width="512" height="512" viewBox="0 0 512 512" fill="none" xmlns="http://www.w3.org/2000/svg" role="img" aria-labelledby="title desc">
  <title id="title">AITP Mark</title>
  <desc id="desc">A dark rounded-square AITP logo with a warped spacetime grid as background, a honeycomb lattice embedded inside it, and a circuit-like A framed by ket notation for AI and quantum information.</desc>
  <defs>
    <linearGradient id="bg" x1="42" y1="34" x2="462" y2="480" gradientUnits="userSpaceOnUse">
      <stop stop-color="#061725"/>
      <stop offset="0.54" stop-color="#091D31"/>
      <stop offset="1" stop-color="#040B13"/>
    </linearGradient>
    <radialGradient id="portal" cx="0" cy="0" r="1" gradientUnits="userSpaceOnUse" gradientTransform="translate(256 256) rotate(90) scale(164)">
      <stop stop-color="#12324D"/>
      <stop offset="0.68" stop-color="#0A1C2F"/>
      <stop offset="1" stop-color="#060E18"/>
    </radialGradient>
    <linearGradient id="gridStroke" x1="150" y1="106" x2="362" y2="356" gradientUnits="userSpaceOnUse">
      <stop stop-color="#7DD7FF"/>
      <stop offset="1" stop-color="#7A92FF"/>
    </linearGradient>
    <linearGradient id="ketStroke" x1="168" y1="148" x2="350" y2="350" gradientUnits="userSpaceOnUse">
      <stop stop-color="#83F4EB"/>
      <stop offset="1" stop-color="#A98BFF"/>
    </linearGradient>
    <linearGradient id="aiStroke" x1="212" y1="154" x2="304" y2="334" gradientUnits="userSpaceOnUse">
      <stop stop-color="#FFF2C6"/>
      <stop offset="0.46" stop-color="#FFC857"/>
      <stop offset="1" stop-color="#FF9354"/>
    </linearGradient>
    <filter id="coreGlow" x="132" y="116" width="248" height="260" filterUnits="userSpaceOnUse" color-interpolation-filters="sRGB">
      <feGaussianBlur stdDeviation="18"/>
    </filter>
    <clipPath id="portalClip">
      <circle cx="256" cy="256" r="146"/>
    </clipPath>
  </defs>

  <rect x="24" y="24" width="464" height="464" rx="96" fill="url(#bg)"/>
  <rect x="24.5" y="24.5" width="463" height="463" rx="95.5" stroke="#61DEF1" stroke-opacity="0.16"/>

  <g opacity="0.13">
    <path d="M96 136H416" stroke="#90D7FF" stroke-width="1"/>
    <path d="M96 200H416" stroke="#90D7FF" stroke-width="1"/>
    <path d="M96 264H416" stroke="#90D7FF" stroke-width="1"/>
    <path d="M96 328H416" stroke="#90D7FF" stroke-width="1"/>
    <path d="M96 392H416" stroke="#90D7FF" stroke-width="1"/>
    <path d="M136 96V416" stroke="#90D7FF" stroke-width="1"/>
    <path d="M200 96V416" stroke="#90D7FF" stroke-width="1"/>
    <path d="M264 96V416" stroke="#90D7FF" stroke-width="1"/>
    <path d="M328 96V416" stroke="#90D7FF" stroke-width="1"/>
    <path d="M392 96V416" stroke="#90D7FF" stroke-width="1"/>
  </g>

  <circle cx="256" cy="256" r="146" fill="url(#portal)"/>

  <g clip-path="url(#portalClip)" opacity="0.84">
    <path d="M128 132C184 156 252 164 392 136" stroke="url(#gridStroke)" stroke-width="4" stroke-linecap="round"/>
    <path d="M118 180C182 208 258 214 404 184" stroke="url(#gridStroke)" stroke-width="4" stroke-linecap="round"/>
    <path d="M112 232C182 262 266 268 410 238" stroke="url(#gridStroke)" stroke-width="4" stroke-linecap="round"/>
    <path d="M112 284C184 314 272 320 408 294" stroke="url(#gridStroke)" stroke-width="4" stroke-linecap="round"/>
    <path d="M118 334C188 360 272 364 396 344" stroke="url(#gridStroke)" stroke-width="4" stroke-linecap="round"/>

    <path d="M164 104C148 166 144 252 164 370" stroke="#9BE7FF" stroke-width="4" stroke-linecap="round"/>
    <path d="M212 106C198 174 196 262 214 376" stroke="#9BE7FF" stroke-width="4" stroke-linecap="round"/>
    <path d="M260 108C252 176 254 266 270 378" stroke="#9BE7FF" stroke-width="4" stroke-linecap="round"/>
    <path d="M308 106C308 172 316 262 332 374" stroke="#9BE7FF" stroke-width="4" stroke-linecap="round"/>
    <path d="M356 102C364 168 378 256 392 362" stroke="#9BE7FF" stroke-width="4" stroke-linecap="round"/>
  </g>

  <circle cx="178" cy="324" r="80" fill="#1CE2C7" fill-opacity="0.08"/>
  <circle cx="302" cy="190" r="76" fill="#6BA8FF" fill-opacity="0.08"/>
  <circle cx="258" cy="244" r="72" fill="#FFC857" fill-opacity="0.09" filter="url(#coreGlow)"/>

  <g stroke="#73F3E9" stroke-width="6" stroke-linecap="round" stroke-linejoin="round">
    <path d="M102 316L130 300L158 316L158 348L130 364L102 348Z"/>
    <path d="M158 316L186 300L214 316L214 348L186 364L158 348Z"/>
    <path d="M130 364L158 348L186 364L186 396L158 412L130 396Z"/>
    <path d="M186 364L214 348L242 364L242 396L214 412L186 396Z"/>
  </g>

  <g fill="#9CF8EF">
    <circle cx="102" cy="316" r="5.5"/>
    <circle cx="130" cy="300" r="5.5"/>
    <circle cx="158" cy="316" r="5.5"/>
    <circle cx="158" cy="348" r="5.5"/>
    <circle cx="130" cy="364" r="5.5"/>
    <circle cx="186" cy="300" r="5.5"/>
    <circle cx="214" cy="316" r="5.5"/>
    <circle cx="214" cy="348" r="5.5"/>
    <circle cx="186" cy="364" r="5.5"/>
    <circle cx="158" cy="412" r="5.5"/>
    <circle cx="214" cy="412" r="5.5"/>
  </g>

  <g stroke="url(#ketStroke)" stroke-width="11" stroke-linecap="round" stroke-linejoin="round">
    <path d="M176 160V344"/>
    <path d="M322 160L368 252L322 344"/>
  </g>

  <g stroke="url(#aiStroke)" stroke-width="14" stroke-linecap="round" stroke-linejoin="round">
    <path d="M214 332L258 178L302 332"/>
    <path d="M232 274H284"/>
    <path d="M284 274H326"/>
    <path d="M232 274H190"/>
    <path d="M258 178V146"/>
  </g>

  <g fill="#FFF0BF">
    <circle cx="258" cy="146" r="8.5"/>
    <circle cx="258" cy="178" r="8"/>
    <circle cx="214" cy="332" r="8.5"/>
    <circle cx="302" cy="332" r="8.5"/>
    <circle cx="232" cy="274" r="7.5"/>
    <circle cx="284" cy="274" r="7.5"/>
    <circle cx="190" cy="274" r="6.5"/>
    <circle cx="326" cy="274" r="6.5"/>
    <circle cx="258" cy="244" r="8"/>
  </g>
</svg>
