<svg width="1600" height="720" viewBox="0 0 1600 720" fill="none" xmlns="http://www.w3.org/2000/svg" role="img" aria-labelledby="title desc">
  <title id="title">AITP README Hero</title>
  <desc id="desc">A wide AITP banner with a luminous AI monogram suspended inside a protocol chamber, plus protocol messaging and the L0 to L4 route.</desc>
  <defs>
    <linearGradient id="heroBg" x1="0" y1="0" x2="1600" y2="720" gradientUnits="userSpaceOnUse">
      <stop stop-color="#05131F"/>
      <stop offset="0.48" stop-color="#091B2E"/>
      <stop offset="1" stop-color="#061019"/>
    </linearGradient>
    <linearGradient id="heroBorder" x1="70" y1="50" x2="1540" y2="670" gradientUnits="userSpaceOnUse">
      <stop stop-color="#5AE5F4" stop-opacity="0.28"/>
      <stop offset="1" stop-color="#5AE5F4" stop-opacity="0.05"/>
    </linearGradient>
    <linearGradient id="warpStroke" x1="980" y1="44" x2="1458" y2="624" gradientUnits="userSpaceOnUse">
      <stop stop-color="#81D9FF"/>
      <stop offset="1" stop-color="#888FFF"/>
    </linearGradient>
    <linearGradient id="chipFill" x1="0" y1="0" x2="0" y2="1">
      <stop stop-color="#102A43"/>
      <stop offset="1" stop-color="#0B2033"/>
    </linearGradient>
    <linearGradient id="routeLine" x1="0" y1="0" x2="1" y2="0">
      <stop stop-color="#69F2E8"/>
      <stop offset="1" stop-color="#FFC857"/>
    </linearGradient>
    <linearGradient id="panelStroke" x1="0" y1="0" x2="1" y2="1">
      <stop stop-color="#74F3EA"/>
      <stop offset="1" stop-color="#A98BFF"/>
    </linearGradient>
    <radialGradient id="leftGlow" cx="0" cy="0" r="1" gradientUnits="userSpaceOnUse" gradientTransform="translate(286 312) rotate(90) scale(250)">
      <stop stop-color="#1BE1C8" stop-opacity="0.2"/>
      <stop offset="1" stop-color="#1BE1C8" stop-opacity="0"/>
    </radialGradient>
    <radialGradient id="rightGlow" cx="0" cy="0" r="1" gradientUnits="userSpaceOnUse" gradientTransform="translate(1298 188) rotate(90) scale(240)">
      <stop stop-color="#6BA8FF" stop-opacity="0.14"/>
      <stop offset="1" stop-color="#6BA8FF" stop-opacity="0"/>
    </radialGradient>
    <filter id="titleGlow" x="506" y="138" width="292" height="174" filterUnits="userSpaceOnUse" color-interpolation-filters="sRGB">
      <feGaussianBlur stdDeviation="12"/>
    </filter>
    <clipPath id="heroWarpClip">
      <path d="M946 78C1116 18 1356 42 1468 126C1520 166 1524 236 1494 294C1452 374 1434 460 1466 566C1474 592 1452 616 1426 612C1324 594 1208 594 1112 620C1018 646 930 612 902 534C846 378 832 240 946 78Z"/>
    </clipPath>

    <linearGradient id="beamFill" x1="68" y1="66" x2="338" y2="374" gradientUnits="userSpaceOnUse">
      <stop stop-color="#76F6EC" stop-opacity="0.22"/>
      <stop offset="0.56" stop-color="#7FBCFF" stop-opacity="0.14"/>
      <stop offset="1" stop-color="#FFC857" stop-opacity="0.08"/>
    </linearGradient>
    <linearGradient id="ambientStroke" x1="22" y1="70" x2="382" y2="360" gradientUnits="userSpaceOnUse">
      <stop stop-color="#69F2E8" stop-opacity="0.2"/>
      <stop offset="0.72" stop-color="#8FB9FF" stop-opacity="0.22"/>
      <stop offset="1" stop-color="#FFC857" stop-opacity="0.16"/>
    </linearGradient>
    <radialGradient id="panelPortal" cx="0" cy="0" r="1" gradientUnits="userSpaceOnUse" gradientTransform="translate(256 254) rotate(90) scale(172)">
      <stop stop-color="#123B57"/>
      <stop offset="0.6" stop-color="#0C2338"/>
      <stop offset="1" stop-color="#07111D"/>
    </radialGradient>
    <radialGradient id="panelCoreGlow" cx="0" cy="0" r="1" gradientUnits="userSpaceOnUse" gradientTransform="translate(250 246) rotate(90) scale(96)">
      <stop stop-color="#6AF8F0" stop-opacity="0.34"/>
      <stop offset="1" stop-color="#6AF8F0" stop-opacity="0"/>
    </radialGradient>
    <radialGradient id="panelSparkGlow" cx="0" cy="0" r="1" gradientUnits="userSpaceOnUse" gradientTransform="translate(344 166) rotate(90) scale(54)">
      <stop stop-color="#FFC857" stop-opacity="0.42"/>
      <stop offset="1" stop-color="#FFC857" stop-opacity="0"/>
    </radialGradient>
    <linearGradient id="panelFrameStroke" x1="156" y1="146" x2="358" y2="366" gradientUnits="userSpaceOnUse">
      <stop stop-color="#83F6ED"/>
      <stop offset="0.58" stop-color="#7AC5FF"/>
      <stop offset="1" stop-color="#A98BFF"/>
    </linearGradient>
    <linearGradient id="panelGlyphStroke" x1="180" y1="162" x2="330" y2="338" gradientUnits="userSpaceOnUse">
      <stop stop-color="#EFFFFF"/>
      <stop offset="0.38" stop-color="#87FFF2"/>
      <stop offset="1" stop-color="#76A8FF"/>
    </linearGradient>
    <linearGradient id="panelGlyphFill" x1="306" y1="166" x2="306" y2="348" gradientUnits="userSpaceOnUse">
      <stop stop-color="#EAF8FF"/>
      <stop offset="0.4" stop-color="#8EF7EE"/>
      <stop offset="1" stop-color="#77A7FF"/>
    </linearGradient>
    <linearGradient id="panelOrbitStroke" x1="138" y1="182" x2="428" y2="364" gradientUnits="userSpaceOnUse">
      <stop stop-color="#69F2E8" stop-opacity="0.22"/>
      <stop offset="0.7" stop-color="#8EB6FF" stop-opacity="0.26"/>
      <stop offset="1" stop-color="#FFC857" stop-opacity="0.22"/>
    </linearGradient>
    <linearGradient id="panelBracketStroke" x1="134" y1="156" x2="392" y2="356" gradientUnits="userSpaceOnUse">
      <stop stop-color="#7EF4EB"/>
      <stop offset="1" stop-color="#A28EFF"/>
    </linearGradient>
    <filter id="panelSoftBlur" x="126" y="122" width="264" height="272" filterUnits="userSpaceOnUse" color-interpolation-filters="sRGB">
      <feGaussianBlur stdDeviation="18"/>
    </filter>
    <filter id="panelGlyphGlow" x="150" y="130" width="218" height="248" filterUnits="userSpaceOnUse" color-interpolation-filters="sRGB">
      <feGaussianBlur stdDeviation="7"/>
    </filter>
  </defs>

  <rect width="1600" height="720" rx="40" fill="url(#heroBg)"/>
  <rect x="1" y="1" width="1598" height="718" rx="39" stroke="url(#heroBorder)"/>

  <circle cx="286" cy="312" r="250" fill="url(#leftGlow)"/>
  <circle cx="1298" cy="188" r="240" fill="url(#rightGlow)"/>

  <g opacity="0.11">
    <path d="M80 108H1520" stroke="#8FD7FF" stroke-width="1"/>
    <path d="M80 188H1520" stroke="#8FD7FF" stroke-width="1"/>
    <path d="M80 268H1520" stroke="#8FD7FF" stroke-width="1"/>
    <path d="M80 348H1520" stroke="#8FD7FF" stroke-width="1"/>
    <path d="M80 428H1520" stroke="#8FD7FF" stroke-width="1"/>
    <path d="M80 508H1520" stroke="#8FD7FF" stroke-width="1"/>
    <path d="M80 588H1520" stroke="#8FD7FF" stroke-width="1"/>
    <path d="M120 80V640" stroke="#8FD7FF" stroke-width="1"/>
    <path d="M240 80V640" stroke="#8FD7FF" stroke-width="1"/>
    <path d="M360 80V640" stroke="#8FD7FF" stroke-width="1"/>
    <path d="M480 80V640" stroke="#8FD7FF" stroke-width="1"/>
    <path d="M600 80V640" stroke="#8FD7FF" stroke-width="1"/>
    <path d="M720 80V640" stroke="#8FD7FF" stroke-width="1"/>
    <path d="M840 80V640" stroke="#8FD7FF" stroke-width="1"/>
    <path d="M960 80V640" stroke="#8FD7FF" stroke-width="1"/>
    <path d="M1080 80V640" stroke="#8FD7FF" stroke-width="1"/>
    <path d="M1200 80V640" stroke="#8FD7FF" stroke-width="1"/>
    <path d="M1320 80V640" stroke="#8FD7FF" stroke-width="1"/>
    <path d="M1440 80V640" stroke="#8FD7FF" stroke-width="1"/>
  </g>

  <g clip-path="url(#heroWarpClip)" opacity="0.3">
    <path d="M856 118C994 176 1166 194 1514 126" stroke="url(#warpStroke)" stroke-width="6" stroke-linecap="round"/>
    <path d="M830 206C990 274 1188 286 1526 220" stroke="url(#warpStroke)" stroke-width="6" stroke-linecap="round"/>
    <path d="M816 302C992 378 1210 390 1528 326" stroke="url(#warpStroke)" stroke-width="6" stroke-linecap="round"/>
    <path d="M824 400C1004 476 1218 486 1520 430" stroke="url(#warpStroke)" stroke-width="6" stroke-linecap="round"/>
    <path d="M858 500C1028 564 1212 570 1482 526" stroke="url(#warpStroke)" stroke-width="6" stroke-linecap="round"/>

    <path d="M972 30C942 164 930 352 978 628" stroke="#9DE8FF" stroke-width="6" stroke-linecap="round"/>
    <path d="M1080 26C1052 166 1046 362 1088 634" stroke="#9DE8FF" stroke-width="6" stroke-linecap="round"/>
    <path d="M1188 26C1168 162 1170 368 1208 636" stroke="#9DE8FF" stroke-width="6" stroke-linecap="round"/>
    <path d="M1296 34C1288 166 1302 372 1340 628" stroke="#9DE8FF" stroke-width="6" stroke-linecap="round"/>
    <path d="M1402 48C1412 172 1438 362 1476 606" stroke="#9DE8FF" stroke-width="6" stroke-linecap="round"/>
  </g>

  <g opacity="0.22" stroke="#73F3E9" stroke-width="6" stroke-linecap="round" stroke-linejoin="round">
    <path d="M1098 472L1128 454L1158 472L1158 506L1128 524L1098 506Z"/>
    <path d="M1158 472L1188 454L1218 472L1218 506L1188 524L1158 506Z"/>
    <path d="M1218 472L1248 454L1278 472L1278 506L1248 524L1218 506Z"/>
    <path d="M1128 524L1158 506L1188 524L1188 558L1158 576L1128 558Z"/>
    <path d="M1188 524L1218 506L1248 524L1248 558L1218 576L1188 558Z"/>
    <path d="M1248 524L1278 506L1308 524L1308 558L1278 576L1248 558Z"/>
  </g>

  <g transform="translate(92 108)">
    <rect x="0" y="0" width="404" height="404" rx="88" fill="#071522" fill-opacity="0.82"/>
    <rect x="1" y="1" width="402" height="402" rx="87" stroke="url(#panelStroke)" stroke-opacity="0.24"/>

    <path d="M52 336C106 300 154 244 214 104C224 80 248 62 274 62C304 62 332 84 336 116C348 214 358 286 386 338" fill="url(#beamFill)"/>
    <circle cx="204" cy="204" r="164" stroke="#7CEFEA" stroke-opacity="0.08" stroke-width="2"/>
    <circle cx="204" cy="204" r="130" stroke="#92BCFF" stroke-opacity="0.08" stroke-width="2"/>

    <g opacity="0.26" stroke="url(#ambientStroke)" stroke-width="3" stroke-linecap="round">
      <path d="M30 126C76 74 138 46 214 46C284 46 340 70 382 112"/>
      <path d="M20 260C36 336 90 384 172 394C268 406 344 372 392 304"/>
      <path d="M50 80C14 144 10 248 38 324"/>
    </g>

    <g transform="translate(4 6) scale(0.78)">
      <circle cx="256" cy="254" r="172" fill="url(#panelPortal)"/>
      <circle cx="256" cy="254" r="146" stroke="#7EE8F2" stroke-opacity="0.14" stroke-width="2"/>
      <circle cx="256" cy="254" r="112" stroke="#A98BFF" stroke-opacity="0.14" stroke-width="2"/>

      <circle cx="250" cy="246" r="96" fill="url(#panelCoreGlow)"/>
      <circle cx="344" cy="166" r="54" fill="url(#panelSparkGlow)"/>

      <g opacity="0.32" stroke="url(#panelOrbitStroke)" stroke-width="3" stroke-linecap="round">
        <path d="M130 196C166 144 225 112 292 112C342 112 388 132 424 164"/>
        <path d="M118 300C132 362 178 410 240 424C308 440 381 412 428 356"/>
        <path d="M154 160C116 216 106 284 126 344"/>
      </g>

      <path d="M256 138L358 196V314L256 372L154 314V196L256 138Z" fill="#0A1827" fill-opacity="0.54" stroke="url(#panelFrameStroke)" stroke-opacity="0.74" stroke-width="6" stroke-linejoin="round"/>
      <path d="M256 138V372" stroke="url(#panelFrameStroke)" stroke-opacity="0.28" stroke-width="3" stroke-linecap="round"/>
      <path d="M154 314L256 254L358 314" stroke="url(#panelFrameStroke)" stroke-opacity="0.18" stroke-width="3" stroke-linecap="round" stroke-linejoin="round"/>

      <g opacity="0.82" stroke="url(#panelBracketStroke)" stroke-width="10" stroke-linecap="round" stroke-linejoin="round">
        <path d="M136 168V340"/>
        <path d="M136 168L160 146"/>
        <path d="M136 340L160 362"/>
        <path d="M376 146L400 254L376 362"/>
      </g>

      <g filter="url(#panelSoftBlur)" opacity="0.6">
        <path d="M184 340L228 170L272 340" stroke="#78FFF0" stroke-opacity="0.55" stroke-width="20" stroke-linecap="round" stroke-linejoin="round"/>
        <path d="M206 266H250" stroke="#A8FFF8" stroke-opacity="0.5" stroke-width="14" stroke-linecap="round"/>
        <rect x="286" y="170" width="38" height="176" rx="19" fill="#8BF7EE" fill-opacity="0.42"/>
      </g>

      <g filter="url(#panelGlyphGlow)" opacity="0.9">
        <path d="M184 340L228 170L272 340" stroke="#7AFBF0" stroke-opacity="0.24" stroke-width="18" stroke-linecap="round" stroke-linejoin="round"/>
        <rect x="286" y="170" width="38" height="176" rx="19" fill="#7AFBF0" fill-opacity="0.18"/>
      </g>

      <g stroke="url(#panelGlyphStroke)" stroke-width="20" stroke-linecap="round" stroke-linejoin="round">
        <path d="M184 340L228 170L272 340"/>
        <path d="M206 266H250"/>
      </g>

      <rect x="286" y="170" width="38" height="176" rx="19" fill="url(#panelGlyphFill)"/>
      <rect x="278" y="156" width="54" height="18" rx="9" fill="#E4FBFF" fill-opacity="0.88"/>
      <rect x="278" y="346" width="54" height="18" rx="9" fill="#8CC6FF" fill-opacity="0.78"/>

      <circle cx="140" cy="188" r="10" fill="#6EF4E9"/>
      <circle cx="214" cy="126" r="8" fill="#8AF9EF"/>
      <circle cx="304" cy="118" r="8" fill="#95D8FF"/>
      <circle cx="388" cy="166" r="8" fill="#97A6FF"/>
      <circle cx="430" cy="344" r="10" fill="#FFC857"/>

      <path d="M336 160L344 146L352 160L366 168L352 176L344 190L336 176L322 168L336 160Z" fill="#FFC857"/>
    </g>

    <g font-family="Segoe UI, Arial, sans-serif">
      <text x="34" y="48" fill="#89F1F8" font-size="13" font-weight="700" letter-spacing="4">AI FIELD</text>
      <text x="34" y="72" fill="#C4D8E5" font-size="15">Protocol-contained reasoning surface</text>
    </g>
  </g>

  <g font-family="Segoe UI, Arial, sans-serif">
    <text x="560" y="166" fill="#89F1F8" font-size="24" font-weight="700" letter-spacing="5">AI THEORETICAL PHYSICIST</text>
    <g filter="url(#titleGlow)">
      <text x="560" y="286" fill="#7EF3E9" fill-opacity="0.18" font-size="112" font-weight="800" letter-spacing="3">AITP</text>
    </g>
    <text x="560" y="286" fill="#F5FBFF" font-size="112" font-weight="800" letter-spacing="3">AITP</text>
    <text x="560" y="356" fill="#D9EAF2" font-size="38" font-weight="700">Research Charter and Kernel</text>
    <text x="560" y="426" fill="#C7DDE8" font-size="29">Protocol-first infrastructure for bounded, evidence-led research</text>
    <text x="560" y="466" fill="#C7DDE8" font-size="29">where reusable memory is earned instead of improvised.</text>
  </g>

  <g transform="translate(560 520)" font-family="Segoe UI, Arial, sans-serif">
    <rect x="0" y="0" width="210" height="60" rx="30" fill="url(#chipFill)"/>
    <rect x="1" y="1" width="208" height="58" rx="29" stroke="#71F2EA" stroke-opacity="0.16"/>
    <text x="105" y="38" text-anchor="middle" fill="#E8F9FD" font-size="22" font-weight="700">Protocol-First</text>

    <rect x="232" y="0" width="220" height="60" rx="30" fill="url(#chipFill)"/>
    <rect x="233" y="1" width="218" height="58" rx="29" stroke="#71F2EA" stroke-opacity="0.16"/>
    <text x="342" y="38" text-anchor="middle" fill="#E8F9FD" font-size="22" font-weight="700">Bounded Work</text>

    <rect x="474" y="0" width="250" height="60" rx="30" fill="url(#chipFill)"/>
    <rect x="475" y="1" width="248" height="58" rx="29" stroke="#71F2EA" stroke-opacity="0.16"/>
    <text x="599" y="38" text-anchor="middle" fill="#E8F9FD" font-size="22" font-weight="700">Human-Gated L2</text>
  </g>

  <g transform="translate(560 620)" font-family="Segoe UI, Arial, sans-serif">
    <line x1="50" y1="26" x2="690" y2="26" stroke="url(#routeLine)" stroke-width="4" stroke-linecap="round"/>

    <g>
      <circle cx="50" cy="26" r="22" fill="#112A43"/>
      <circle cx="50" cy="26" r="21" stroke="#72F3EB" stroke-opacity="0.3"/>
      <text x="50" y="34" text-anchor="middle" fill="#F5FBFF" font-size="20" font-weight="800">L0</text>
    </g>
    <g transform="translate(160 0)">
      <circle cx="50" cy="26" r="22" fill="#112A43"/>
      <circle cx="50" cy="26" r="21" stroke="#72F3EB" stroke-opacity="0.3"/>
      <text x="50" y="34" text-anchor="middle" fill="#F5FBFF" font-size="20" font-weight="800">L1</text>
    </g>
    <g transform="translate(320 0)">
      <circle cx="50" cy="26" r="22" fill="#1C2340"/>
      <circle cx="50" cy="26" r="21" stroke="#8CB5FF" stroke-opacity="0.28"/>
      <text x="50" y="34" text-anchor="middle" fill="#F5FBFF" font-size="20" font-weight="800">L3</text>
    </g>
    <g transform="translate(480 0)">
      <circle cx="50" cy="26" r="22" fill="#2A2233"/>
      <circle cx="50" cy="26" r="21" stroke="#FFC857" stroke-opacity="0.3"/>
      <text x="50" y="34" text-anchor="middle" fill="#F5FBFF" font-size="20" font-weight="800">L4</text>
    </g>
    <g transform="translate(640 0)">
      <circle cx="50" cy="26" r="22" fill="#17362E"/>
      <circle cx="50" cy="26" r="21" stroke="#9AF8EF" stroke-opacity="0.34"/>
      <text x="50" y="34" text-anchor="middle" fill="#F5FBFF" font-size="20" font-weight="800">L2</text>
    </g>
  </g>
</svg>
