<svg width="1600" height="720" viewBox="0 0 1600 720" fill="none" xmlns="http://www.w3.org/2000/svg" role="img" aria-labelledby="title desc">
  <title id="title">AITP README Hero</title>
  <desc id="desc">A wide AITP banner with a refined robot-like AITP mark on the left, protocol messaging in the center, and the L0 to L4 route at the bottom.</desc>
  <defs>
    <linearGradient id="heroBg" x1="0" y1="0" x2="1600" y2="720" gradientUnits="userSpaceOnUse">
      <stop stop-color="#05131F"/>
      <stop offset="0.48" stop-color="#091B2E"/>
      <stop offset="1" stop-color="#061019"/>
    </linearGradient>
    <linearGradient id="heroBorder" x1="70" y1="50" x2="1540" y2="670" gradientUnits="userSpaceOnUse">
      <stop stop-color="#5AE5F4" stop-opacity="0.28"/>
      <stop offset="1" stop-color="#5AE5F4" stop-opacity="0.05"/>
    </linearGradient>
    <linearGradient id="warpStroke" x1="980" y1="44" x2="1458" y2="624" gradientUnits="userSpaceOnUse">
      <stop stop-color="#81D9FF"/>
      <stop offset="1" stop-color="#888FFF"/>
    </linearGradient>
    <linearGradient id="chipFill" x1="0" y1="0" x2="0" y2="1">
      <stop stop-color="#102A43"/>
      <stop offset="1" stop-color="#0B2033"/>
    </linearGradient>
    <linearGradient id="routeLine" x1="0" y1="0" x2="1" y2="0">
      <stop stop-color="#69F2E8"/>
      <stop offset="1" stop-color="#FFC857"/>
    </linearGradient>
    <linearGradient id="panelStroke" x1="0" y1="0" x2="1" y2="1">
      <stop stop-color="#74F3EA"/>
      <stop offset="1" stop-color="#A98BFF"/>
    </linearGradient>
    <radialGradient id="iconPortal" cx="0" cy="0" r="1" gradientUnits="userSpaceOnUse" gradientTransform="translate(256 256) rotate(90) scale(164)">
      <stop stop-color="#12324D"/>
      <stop offset="0.68" stop-color="#0A1C2F"/>
      <stop offset="1" stop-color="#060E18"/>
    </radialGradient>
    <linearGradient id="iconKetStroke" x1="166" y1="148" x2="382" y2="352" gradientUnits="userSpaceOnUse">
      <stop stop-color="#83F4EB"/>
      <stop offset="1" stop-color="#A98BFF"/>
    </linearGradient>
    <linearGradient id="iconRobotStroke" x1="202" y1="126" x2="316" y2="370" gradientUnits="userSpaceOnUse">
      <stop stop-color="#FFF2C6"/>
      <stop offset="0.46" stop-color="#FFC857"/>
      <stop offset="1" stop-color="#FF9354"/>
    </linearGradient>
    <linearGradient id="iconRobotFill" x1="258" y1="154" x2="258" y2="340" gradientUnits="userSpaceOnUse">
      <stop stop-color="#FFEAB5"/>
      <stop offset="0.5" stop-color="#FFC857"/>
      <stop offset="1" stop-color="#FF9354"/>
    </linearGradient>
    <radialGradient id="leftGlow" cx="0" cy="0" r="1" gradientUnits="userSpaceOnUse" gradientTransform="translate(286 312) rotate(90) scale(250)">
      <stop stop-color="#1BE1C8" stop-opacity="0.2"/>
      <stop offset="1" stop-color="#1BE1C8" stop-opacity="0"/>
    </radialGradient>
    <radialGradient id="rightGlow" cx="0" cy="0" r="1" gradientUnits="userSpaceOnUse" gradientTransform="translate(1298 188) rotate(90) scale(240)">
      <stop stop-color="#6BA8FF" stop-opacity="0.14"/>
      <stop offset="1" stop-color="#6BA8FF" stop-opacity="0"/>
    </radialGradient>
    <filter id="titleGlow" x="506" y="138" width="292" height="174" filterUnits="userSpaceOnUse" color-interpolation-filters="sRGB">
      <feGaussianBlur stdDeviation="12"/>
    </filter>
    <clipPath id="heroWarpClip">
      <path d="M946 78C1116 18 1356 42 1468 126C1520 166 1524 236 1494 294C1452 374 1434 460 1466 566C1474 592 1452 616 1426 612C1324 594 1208 594 1112 620C1018 646 930 612 902 534C846 378 832 240 946 78Z"/>
    </clipPath>
  </defs>

  <rect width="1600" height="720" rx="40" fill="url(#heroBg)"/>
  <rect x="1" y="1" width="1598" height="718" rx="39" stroke="url(#heroBorder)"/>

  <circle cx="286" cy="312" r="250" fill="url(#leftGlow)"/>
  <circle cx="1298" cy="188" r="240" fill="url(#rightGlow)"/>

  <g opacity="0.11">
    <path d="M80 108H1520" stroke="#8FD7FF" stroke-width="1"/>
    <path d="M80 188H1520" stroke="#8FD7FF" stroke-width="1"/>
    <path d="M80 268H1520" stroke="#8FD7FF" stroke-width="1"/>
    <path d="M80 348H1520" stroke="#8FD7FF" stroke-width="1"/>
    <path d="M80 428H1520" stroke="#8FD7FF" stroke-width="1"/>
    <path d="M80 508H1520" stroke="#8FD7FF" stroke-width="1"/>
    <path d="M80 588H1520" stroke="#8FD7FF" stroke-width="1"/>
    <path d="M120 80V640" stroke="#8FD7FF" stroke-width="1"/>
    <path d="M240 80V640" stroke="#8FD7FF" stroke-width="1"/>
    <path d="M360 80V640" stroke="#8FD7FF" stroke-width="1"/>
    <path d="M480 80V640" stroke="#8FD7FF" stroke-width="1"/>
    <path d="M600 80V640" stroke="#8FD7FF" stroke-width="1"/>
    <path d="M720 80V640" stroke="#8FD7FF" stroke-width="1"/>
    <path d="M840 80V640" stroke="#8FD7FF" stroke-width="1"/>
    <path d="M960 80V640" stroke="#8FD7FF" stroke-width="1"/>
    <path d="M1080 80V640" stroke="#8FD7FF" stroke-width="1"/>
    <path d="M1200 80V640" stroke="#8FD7FF" stroke-width="1"/>
    <path d="M1320 80V640" stroke="#8FD7FF" stroke-width="1"/>
    <path d="M1440 80V640" stroke="#8FD7FF" stroke-width="1"/>
  </g>

  <g clip-path="url(#heroWarpClip)" opacity="0.3">
    <path d="M856 118C994 176 1166 194 1514 126" stroke="url(#warpStroke)" stroke-width="6" stroke-linecap="round"/>
    <path d="M830 206C990 274 1188 286 1526 220" stroke="url(#warpStroke)" stroke-width="6" stroke-linecap="round"/>
    <path d="M816 302C992 378 1210 390 1528 326" stroke="url(#warpStroke)" stroke-width="6" stroke-linecap="round"/>
    <path d="M824 400C1004 476 1218 486 1520 430" stroke="url(#warpStroke)" stroke-width="6" stroke-linecap="round"/>
    <path d="M858 500C1028 564 1212 570 1482 526" stroke="url(#warpStroke)" stroke-width="6" stroke-linecap="round"/>

    <path d="M972 30C942 164 930 352 978 628" stroke="#9DE8FF" stroke-width="6" stroke-linecap="round"/>
    <path d="M1080 26C1052 166 1046 362 1088 634" stroke="#9DE8FF" stroke-width="6" stroke-linecap="round"/>
    <path d="M1188 26C1168 162 1170 368 1208 636" stroke="#9DE8FF" stroke-width="6" stroke-linecap="round"/>
    <path d="M1296 34C1288 166 1302 372 1340 628" stroke="#9DE8FF" stroke-width="6" stroke-linecap="round"/>
    <path d="M1402 48C1412 172 1438 362 1476 606" stroke="#9DE8FF" stroke-width="6" stroke-linecap="round"/>
  </g>

  <g opacity="0.22" stroke="#73F3E9" stroke-width="6" stroke-linecap="round" stroke-linejoin="round">
    <path d="M1098 472L1128 454L1158 472L1158 506L1128 524L1098 506Z"/>
    <path d="M1158 472L1188 454L1218 472L1218 506L1188 524L1158 506Z"/>
    <path d="M1218 472L1248 454L1278 472L1278 506L1248 524L1218 506Z"/>
    <path d="M1128 524L1158 506L1188 524L1188 558L1158 576L1128 558Z"/>
    <path d="M1188 524L1218 506L1248 524L1248 558L1218 576L1188 558Z"/>
    <path d="M1248 524L1278 506L1308 524L1308 558L1278 576L1248 558Z"/>
  </g>

  <g transform="translate(92 118)">
    <rect x="0" y="0" width="388" height="388" rx="82" fill="#071522" fill-opacity="0.78"/>
    <rect x="1" y="1" width="386" height="386" rx="81" stroke="url(#panelStroke)" stroke-opacity="0.24"/>

    <g transform="translate(-62 -62)">
      <circle cx="256" cy="256" r="146" fill="url(#iconPortal)"/>
      <circle cx="256" cy="256" r="120" stroke="#7EE8F2" stroke-opacity="0.12" stroke-width="2"/>
      <circle cx="256" cy="256" r="92" stroke="#A98BFF" stroke-opacity="0.12" stroke-width="2"/>

      <circle cx="178" cy="324" r="80" fill="#1CE2C7" fill-opacity="0.08"/>
      <circle cx="302" cy="190" r="76" fill="#6BA8FF" fill-opacity="0.08"/>
      <circle cx="258" cy="246" r="70" fill="#FFC857" fill-opacity="0.12"/>

      <g stroke="url(#iconKetStroke)" stroke-width="11" stroke-linecap="round" stroke-linejoin="round">
        <path d="M182 160V344"/>
        <path d="M366 160L402 252L366 344"/>
      </g>

      <g fill="url(#iconRobotFill)" fill-opacity="0.12">
        <rect x="214" y="154" width="88" height="84" rx="24"/>
        <path d="M226 250H290L302 298L258 336L214 298L226 250Z"/>
      </g>

      <g stroke="url(#iconRobotStroke)" stroke-width="14" stroke-linecap="round" stroke-linejoin="round">
        <path d="M258 124V146"/>
        <path d="M214 190H196"/>
        <path d="M302 190H320"/>
        <rect x="214" y="154" width="88" height="84" rx="24"/>
        <path d="M238 214H278"/>
        <path d="M226 250H290L302 298L258 336L214 298L226 250Z"/>
        <path d="M258 250V318"/>
        <path d="M232 296H284"/>
        <path d="M226 270L194 292"/>
        <path d="M290 270L322 292"/>
        <path d="M238 336L214 366"/>
        <path d="M278 336L302 366"/>
      </g>

      <g fill="#6FF6EC" fill-opacity="0.55">
        <circle cx="238" cy="188" r="7"/>
        <circle cx="278" cy="188" r="7"/>
      </g>
      <g fill="#9CF8EF">
        <circle cx="238" cy="188" r="4.5"/>
        <circle cx="278" cy="188" r="4.5"/>
      </g>

      <g fill="#FFF0BF">
        <circle cx="258" cy="124" r="8.5"/>
        <circle cx="194" cy="292" r="6.5"/>
        <circle cx="322" cy="292" r="6.5"/>
        <circle cx="214" cy="366" r="7"/>
        <circle cx="302" cy="366" r="7"/>
        <circle cx="258" cy="336" r="7"/>
        <circle cx="258" cy="278" r="6"/>
      </g>
    </g>
  </g>

  <g font-family="Segoe UI, Arial, sans-serif">
    <text x="560" y="166" fill="#89F1F8" font-size="24" font-weight="700" letter-spacing="5">AI THEORETICAL PHYSICIST</text>
    <g filter="url(#titleGlow)">
      <text x="560" y="286" fill="#7EF3E9" fill-opacity="0.18" font-size="112" font-weight="800" letter-spacing="3">AITP</text>
    </g>
    <text x="560" y="286" fill="#F5FBFF" font-size="112" font-weight="800" letter-spacing="3">AITP</text>
    <text x="560" y="356" fill="#D9EAF2" font-size="38" font-weight="700">Research Charter and Kernel</text>
    <text x="560" y="426" fill="#C7DDE8" font-size="29">Protocol-first infrastructure for bounded, evidence-led research</text>
    <text x="560" y="466" fill="#C7DDE8" font-size="29">where reusable memory is earned instead of improvised.</text>
  </g>

  <g transform="translate(560 520)" font-family="Segoe UI, Arial, sans-serif">
    <rect x="0" y="0" width="210" height="60" rx="30" fill="url(#chipFill)"/>
    <rect x="1" y="1" width="208" height="58" rx="29" stroke="#71F2EA" stroke-opacity="0.16"/>
    <text x="105" y="38" text-anchor="middle" fill="#E8F9FD" font-size="22" font-weight="700">Protocol-First</text>

    <rect x="232" y="0" width="220" height="60" rx="30" fill="url(#chipFill)"/>
    <rect x="233" y="1" width="218" height="58" rx="29" stroke="#71F2EA" stroke-opacity="0.16"/>
    <text x="342" y="38" text-anchor="middle" fill="#E8F9FD" font-size="22" font-weight="700">Bounded Work</text>

    <rect x="474" y="0" width="250" height="60" rx="30" fill="url(#chipFill)"/>
    <rect x="475" y="1" width="248" height="58" rx="29" stroke="#71F2EA" stroke-opacity="0.16"/>
    <text x="599" y="38" text-anchor="middle" fill="#E8F9FD" font-size="22" font-weight="700">Human-Gated L2</text>
  </g>

  <g transform="translate(560 620)" font-family="Segoe UI, Arial, sans-serif">
    <line x1="50" y1="26" x2="690" y2="26" stroke="url(#routeLine)" stroke-width="4" stroke-linecap="round"/>

    <g>
      <circle cx="50" cy="26" r="22" fill="#112A43"/>
      <circle cx="50" cy="26" r="21" stroke="#72F3EB" stroke-opacity="0.3"/>
      <text x="50" y="34" text-anchor="middle" fill="#F5FBFF" font-size="20" font-weight="800">L0</text>
    </g>
    <g transform="translate(160 0)">
      <circle cx="50" cy="26" r="22" fill="#112A43"/>
      <circle cx="50" cy="26" r="21" stroke="#72F3EB" stroke-opacity="0.3"/>
      <text x="50" y="34" text-anchor="middle" fill="#F5FBFF" font-size="20" font-weight="800">L1</text>
    </g>
    <g transform="translate(320 0)">
      <circle cx="50" cy="26" r="22" fill="#1C2340"/>
      <circle cx="50" cy="26" r="21" stroke="#8CB5FF" stroke-opacity="0.28"/>
      <text x="50" y="34" text-anchor="middle" fill="#F5FBFF" font-size="20" font-weight="800">L3</text>
    </g>
    <g transform="translate(480 0)">
      <circle cx="50" cy="26" r="22" fill="#2A2233"/>
      <circle cx="50" cy="26" r="21" stroke="#FFC857" stroke-opacity="0.3"/>
      <text x="50" y="34" text-anchor="middle" fill="#F5FBFF" font-size="20" font-weight="800">L4</text>
    </g>
    <g transform="translate(640 0)">
      <circle cx="50" cy="26" r="22" fill="#17362E"/>
      <circle cx="50" cy="26" r="21" stroke="#9AF8EF" stroke-opacity="0.34"/>
      <text x="50" y="34" text-anchor="middle" fill="#F5FBFF" font-size="20" font-weight="800">L2</text>
    </g>
  </g>
</svg>
